Patient4_TMGait_0pt4_02_right_42_EMG.mot
version=1
nRows=13
nColumns=33
inDegrees=no
endheader
time	1LAddLong	2LGlutMax	3LGlutMed	4LIliopsoas	5LSemiMemb	6LBicFemLong	7LRecFem	8LVastMed	9LVastLat	10LGasMed	11LTibAnt	12lTibPost	13LPeroneusLong	14LSol	15LExtDigLong	16LFlexDigLong	17RAddLong	18RGlutMax	19RGlutMed	20RIliopsoas	21RSemiMemb	22RBicFemLong	23RRecFem	24RVastMed	25RVastLat	26RGasMed	27RTibAnt	28RTibPost	29RPeroneusLong	30RSol	31RExtDigLong	32RFlexDigLong
55.795	-0.007324	-0.08606	-0.081635	0.009613	0.019073	-0.03479	-0.20203	0.002899	0.010071	0.012817	-0.005341	-0.005798	-0.09491	0.081177	0.016785	-0.061951	-0.008392	-1.3245	-0.28488	0.062866	-0.13519	0.19272	0.15839	0.027313	-0.090942	0.000458	0.18646	-0.014648	1.2831	0.002289	0.000305	-0.022125
55.796	-0.006866	-0.078735	-0.076904	0.008087	0.005341	-0.024261	-0.053101	-0.009613	0.005798	0.006104	-0.010376	-0.008087	-0.083618	0.092316	0.018311	-0.058441	-0.006256	-1.4452	0.12436	0.012207	-0.36911	0.14267	0.14252	-0.029449	-0.036621	-0.019073	0.15869	-0.029755	2.3235	-0.053406	-0.002289	-0.014496
55.797	-0.006409	-0.091553	-0.014343	0.010681	0.005341	-0.027771	0.020752	-0.001526	0.008698	0.004883	-0.012054	0.027313	-0.009308	0.20065	-0.008698	-0.058289	-0.057526	-1.5883	-0.03418	0.011597	-0.40436	0.15472	0.12711	0.004425	-0.033417	0.095673	-0.066681	-0.032043	0.66498	-0.23361	-0.00061	-0.009918
55.798	0.004272	-0.10483	0.018158	0.008087	0.018463	-0.033875	0.024261	0.002747	0.002289	0.019684	-0.015717	0.057526	0.01236	0.19486	-0.003357	-0.060272	-0.06073	-1.6748	-0.17944	0.012054	0.18814	0.11704	0.014191	0.00061	-0.005798	0.092468	-0.067749	0.071259	0.25604	-0.32105	-0.001526	0.00824
55.799	0.003967	-0.1062	0.000153	-0.001068	0.014038	-0.0177	-0.005646	0.009766	-0.003052	0.041199	-0.020905	0.018616	-0.001221	0.14023	0.001984	-0.060577	-0.054321	-1.684	-0.215	-0.027313	0.41672	0.029755	-0.15442	0.1915	0.042877	0.010986	0.25238	-0.004425	-2.1649	-0.003815	-0.003052	-0.00885
55.8	-0.006561	-0.1297	-0.011749	0.001068	0.01236	-0.017853	0.073242	-0.003052	0.008392	-0.047913	-0.012054	-0.011749	0.10254	0.071564	-0.013428	-0.055237	-0.056	-1.7845	-0.30716	-0.030212	0.20416	0.17822	-0.14664	0.27237	0.053558	-0.010376	0.16647	-0.011444	-1.6971	0.27634	0.00946	-0.003967
55.801	-0.007324	-0.18601	0.018921	0.007629	0.017395	-0.014343	0.07782	-0.011292	0.021667	-0.044403	0.009918	0.002441	-0.23315	0.007477	0.018311	-0.041504	-0.045471	-1.8794	-0.74753	0.036316	0.083618	0.2948	-0.13351	0.19882	-0.000763	-0.015411	-0.086365	0.062866	-0.96542	0.35919	-0.003357	-0.003204
55.802	-0.005035	-0.19531	0.04425	0.009155	0.011902	0.014801	0.048218	0.00473	0.02594	-0.054932	0.015259	0.006409	-0.31815	0.007172	0.04425	0.01236	-0.029297	-1.9003	-0.97366	0.022278	0.095215	0.19348	-0.11826	0.121	-0.05722	-0.034637	-0.061035	-0.002136	-1.051	0.25452	-0.002289	-0.002136
55.803	-0.008545	-0.159	0.07309	0.020905	0.012817	0.002899	0.14297	0.002594	0.027466	-0.061646	0.005951	-0.000458	-0.19699	-0.002441	0.027771	0.011902	-0.016785	-1.9055	-0.48904	-0.077057	0.16098	0.15595	-0.12482	0.10651	-0.066376	-0.049438	-0.092773	-0.011597	-0.39795	0.25971	-0.002441	-0.000916
55.804	-0.001068	-0.20187	0.072174	0.022278	0.023651	-0.006256	0.1828	0.004883	0.026245	-0.056305	0.000763	-0.012512	0.002899	-0.006714	-0.009003	-0.43152	-0.005798	-1.9298	-0.28122	-0.049896	0.21393	0.18646	-0.18295	0.11643	-0.04837	-0.050812	-0.05249	-0.010223	-1.3658	0.069122	-0.007324	0.001526
55.805	-0.002136	-0.19943	0.050659	0.015259	0.016022	-0.036926	0.26581	-0.010223	0.027313	-0.003204	-0.001068	-0.003052	0.077057	0.023956	-0.02243	0.007172	0.033112	-1.9429	-0.58151	-0.055847	0.26184	0.063934	-0.16647	0.12283	0.03006	-0.033722	0.051117	-0.01297	-2.7928	-0.063629	-0.003967	0
55.806	-0.00061	-0.2066	0.045624	-0.002747	0.012817	-0.042877	0.31509	-0.004883	0.023346	0.14435	0.00351	-0.009613	0.055389	0.05249	-0.028992	0.045166	0.039368	-1.9637	-0.17807	-0.016174	0.33585	0.11002	-0.12405	0.15091	0.12299	-0.002747	-0.088959	-0.005798	0.022278	-0.11597	0.000458	-0.002594
55.807	0.001068	-0.24185	0.07019	0.009918	0.013123	-0.009003	0.3096	0.007324	0.050812	0.14679	0.015564	-0.015106	0.011444	0.013733	-0.035858	-0.007935	0.033722	-1.9119	-0.42602	0.063782	0.17303	0.32745	-0.076447	0.11536	0.15335	0.010986	-0.26718	0.014954	3.5991	-0.10483	0.000916	0.002441
